<svg width="100" height="76" viewBox="0 0 100 76" fill="none" xmlns="http://www.w3.org/2000/svg">
<rect x="2.31909" y="22.0457" width="91.1451" height="52.2128" rx="2.81986" transform="rotate(-6.58676 2.31909 22.0457)" stroke="#E4382F" stroke-width="2.00119"/>
<path d="M4.55701 14.4619L28.6703 15.5234L88.8654 4.72683L95.0111 57.9505L53.7229 69.1277L10.7027 67.6856L4.55701 14.4619Z" fill="#191919"/>
<path d="M51.2407 69.0483L10.7925 67.6754" stroke="#E4382F" stroke-width="2.00119" stroke-linecap="round"/>
<path d="M45.0638 15.5532L4.6156 14.1803" stroke="#E4382F" stroke-width="2.00119" stroke-linecap="round"/>
<path d="M56.1204 68.4849L95.1913 57.9299" stroke="#E4382F" stroke-width="2.00119" stroke-linecap="round"/>
<path d="M49.9437 14.99L89.0147 4.43502" stroke="#E4382F" stroke-width="2.00119" stroke-linecap="round"/>
<path d="M4.43494 14.2012L10.612 67.6959" stroke="#E4382F" stroke-width="2.00119" stroke-linecap="round"/>
<path d="M89.0139 4.43506L95.1909 57.9298" stroke="#E4382F" stroke-width="2.00119" stroke-linecap="round"/>
<path d="M10.103 10.1589L47.7573 15.8834L82.4209 1.25893L88.598 54.7537L53.8613 68.7456L16.2905 63.744L10.103 10.1589Z" fill="#191919"/>
<path d="M82.7738 1.12671L88.9508 54.6214" stroke="#E4382F" stroke-width="2.00119" stroke-linecap="round"/>
<path d="M9.76013 9.55762L15.9372 63.0523" stroke="#E4382F" stroke-width="2.00119" stroke-linecap="round"/>
<path d="M82.7738 1.12671L47.7556 15.0596" stroke="#E4382F" stroke-width="2.00119" stroke-linecap="round"/>
<path d="M9.76013 9.55762L47.0321 15.1431" stroke="#E4382F" stroke-width="2.00119" stroke-linecap="round"/>
<path d="M88.9713 54.8025L53.9531 68.7353" stroke="#E4382F" stroke-width="2.00119" stroke-linecap="round"/>
<path d="M15.9584 63.2332L53.2303 68.8187" stroke="#E4382F" stroke-width="2.00119" stroke-linecap="round"/>
<path d="M43.3828 14.4656L48.5582 59.2855" stroke="#E4382F" stroke-width="2.00119" stroke-linecap="round"/>
<path d="M49.7959 69.2151L49.3159 65.0584" stroke="#E4382F" stroke-width="2.00119" stroke-linecap="round"/>
<path d="M47.3936 15.1013L53.5914 68.7768" stroke="#E4382F" stroke-width="2.00119" stroke-linecap="square"/>
<path d="M20.0023 50.6792L44.6093 54.4307" stroke="#E4382F" stroke-width="2.00119" stroke-linecap="round"/>
<path d="M19.2299 43.9924L43.8369 47.7439" stroke="#E4382F" stroke-width="2.00119" stroke-linecap="round"/>
<path d="M18.4777 37.4863L43.0847 41.2378" stroke="#E4382F" stroke-width="2.00119" stroke-linecap="round"/>
<path d="M17.7062 30.7993L42.3132 34.5508" stroke="#E4382F" stroke-width="2.00119" stroke-linecap="round"/>
<path d="M16.9553 24.2932L41.5623 28.0447" stroke="#E4382F" stroke-width="2.00119" stroke-linecap="round"/>
<path d="M16.2032 17.7871L40.8103 21.5386" stroke="#E4382F" stroke-width="2.00119" stroke-linecap="round"/>
<path d="M81.4495 43.5837L58.345 52.8445" stroke="#E4382F" stroke-width="2.00119" stroke-linecap="round"/>
<path d="M80.6771 36.8967L57.5726 46.1575" stroke="#E4382F" stroke-width="2.00119" stroke-linecap="round"/>
<path d="M79.9261 30.3904L56.8217 39.6511" stroke="#E4382F" stroke-width="2.00119" stroke-linecap="round"/>
<path d="M79.1536 23.7039L56.0491 32.9646" stroke="#E4382F" stroke-width="2.00119" stroke-linecap="round"/>
<path d="M78.4026 17.1975L55.2981 26.4582" stroke="#E4382F" stroke-width="2.00119" stroke-linecap="round"/>
<path d="M77.6506 10.6917L54.5461 19.9524" stroke="#E4382F" stroke-width="2.00119" stroke-linecap="round"/>
</svg>
